<svg data-v-0dd9719b="" version="1.0" xmlns="http://www.w3.org/2000/svg" xmlns:xlink="http://www.w3.org/1999/xlink" width="100%" height="100%" viewBox="0 0 340.000000 250.000000" preserveAspectRatio="xMidYMid meet" color-interpolation-filters="sRGB" style="margin: auto;"> <rect data-v-0dd9719b="" x="0" y="0" width="100%" height="100%" fill="#fff" fill-opacity="1" class="background"></rect> <rect data-v-0dd9719b="" x="0" y="0" width="100%" height="100%" fill="url(#watermark)" fill-opacity="1" class="watermarklayer"></rect> <g data-v-0dd9719b="" fill="#333" class="icon-text-wrapper icon-svg-group iconsvg" transform="translate(68.0999984741211,91.71363830566406)"><g class="iconsvg-imagesvg" transform="translate(0,0)"><g><rect fill="#333" fill-opacity="0" stroke-width="2" x="0" y="0" width="59.99999999999999" height="66.57272515450418" class="image-rect"></rect> <svg x="0" y="0" width="59.99999999999999" height="66.57272515450418" filtersec="colorsb6263907615" class="image-svg-svg primary" style="overflow: visible;"><svg xmlns="http://www.w3.org/2000/svg" viewBox="-0.009589560329914093 0 162.4995880126953 180.3000030517578"><path d="M162.48 65v61.75c0 2.77-.3 3.06-3.07 3.07h-24.55c-2.51 0-2.86-.3-2.86-2.82V81.32c0-3.49-.25-3.74-3.69-3.74H59.67a1.79 1.79 0 0 1-2-2V52.82c0-1.62.68-2.1 2.56-2.1h69.63a1.89 1.89 0 0 0 2-2.06V29.02c0-1.64-.68-2.13-2.55-2.14H57.22c-2.55 0-3-.42-3-2.89V2.86C54.22.53 54.73 0 57 0h102.67c2.38 0 2.82.48 2.82 2.92V65z" fill="#2dfa5e"></path><path d="M0 115.34V54.49v-1.94a1.83 1.83 0 0 1 2.07-2H27.83c2.19 0 2.64.4 2.64 2.6q0 22.92.05 45.83v1.63a2 2 0 0 0 2.13 2.16h67.84c4.29 0 4.29 0 4.29 4.31v19.78c0 2.38-.41 2.76-2.79 2.76H33.1c-2 0-2.63.75-2.63 2.75q0 8.11.05 16.22v2.83a1.9 1.9 0 0 0 2.06 2.05h72.9c2.21 0 2.76.5 2.76 2.68v21.57c0 2.09-.53 2.58-2.7 2.58H3.05c-2.71 0-3-.36-3-3.11v-61.85z" fill="#15015e"></path></svg></svg> <!----></g></g> <g transform="translate(67.00000381469727,10.086360931396484)"><g data-gra="path-name" fill-rule="" class="tp-name iconsvg-namesvg"><g transform="scale(1)"><g><path d="M17.36-17.42L17.36 0 5.01 0 5.01-46.4 32.44-46.4 32.44-36.34 17.36-36.34 17.36-27.49 31.26-27.49 31.26-17.42 17.36-17.42ZM67.6-10.22L67.6 0 40.05 0 40.05-46.4 67.6-46.4 67.6-36.34 52.59-36.34 52.59-29.04 66.49-29.04 66.49-18.98 52.59-18.98 52.59-10.22 67.6-10.22ZM103.28-10.22L103.28 0 75.73 0 75.73-46.4 103.28-46.4 103.28-36.34 88.26-36.34 88.26-29.04 102.17-29.04 102.17-18.98 88.26-18.98 88.26-10.22 103.28-10.22ZM141.81 0L111.4 0 111.4-46.4 123.94-46.4 123.94-10.12 141.81-10.12 141.81 0Z" transform="translate(-5.010000228881836, 46.400001525878906)"></path></g> <!----> <!----> <!----> <!----> <!----> <!----> <!----></g></g> <!----></g></g><defs v-gra="od"></defs></svg>